# Created with Anim8or 1.01 Build 1.01.1400
# Object "object01":

mtllib TestTet.mtl

# Shape "sphere01":
o sphere01
# No. points 6:
v 0 3 0
v 0 -3 0
v 0 0 3
v 0 0 -3
v 3 0 0
v -3 0 0

# No. normals 14:
vn 0 1 0
vn 0 -1 0
vn 0 0 1
vn 0 0 -1
vn 1 0 0
vn -1 0 0
vn 0.57735 0.57735 0.57735
vn 0.57735 0.57735 -0.57735
vn -0.57735 0.57735 -0.57735
vn -0.57735 0.57735 0.57735
vn 0.57735 -0.57735 0.57735
vn 0.57735 -0.57735 -0.57735
vn -0.57735 -0.57735 -0.57735
vn -0.57735 -0.57735 0.57735

# No. texture coordinates 15:
vt 0 1
vt 0.12500 1
vt 0.37500 1
vt 0.62500 1
vt 0.87500 1
vt 0 0
vt 0.12500 0
vt 0.37500 0
vt 0.62500 0
vt 0.87500 0
vt 0.75000 0.50000
vt 0.25000 0.50000
vt 0 0.50000
vt 1 0.50000
vt 0.50000 0.50000

# No. faces 8:

usemtl ___default___

f 3/11/3 5/14/5 1/5/1
f 5/13/5 4/12/4 1/2/1
f 4/12/4 6/15/6 1/3/1
f 6/15/6 3/11/3 1/4/1
f 5/14/5 3/11/3 2/10/2
f 4/12/4 5/13/5 2/7/2
f 6/15/6 4/12/4 2/8/2
f 3/11/3 6/15/6 2/9/2

# End of Object "object01"
